<?xml version="1.0" encoding="UTF-8"?>
<svg version="1.1" xmlns="http://www.w3.org/2000/svg" width="3508" height="2481">
<path d="M0 0 C43.10812006 -1.08277853 83.44322468 16.36986027 114.68432617 45.45849609 C144.28199044 73.75216032 161.44418764 114.48812278 162.5546875 155.25 C162.81327137 169.64661703 161.44589372 183.52022743 158.23828125 197.5625 C158.06659424 198.33505127 157.89490723 199.10760254 157.71801758 199.90356445 C156.53825028 204.7520783 154.9852731 209.37973614 153.20977783 214.03504944 C147.92526883 227.89339901 143.83327692 242.09438126 139.66577911 256.3166008 C138.49325608 260.31167056 137.31270196 264.30436437 136.13232422 268.29711914 C135.88620014 269.12971662 135.64007607 269.96231409 135.38649368 270.82014179 C134.87734155 272.54244606 134.36815912 274.26474137 133.85894775 275.98702812 C133.0672598 278.66566815 132.27636054 281.34454009 131.4855957 284.02345276 C125.06758203 305.75849155 118.5633579 327.46774463 112.06374359 349.17848969 C110.36172896 354.86442177 108.66061713 360.55062393 106.95947266 366.23681641 C104.53165234 374.35177637 102.10364222 382.46667948 99.67530823 390.58148575 C92.74140083 413.75265697 85.8110124 436.92488059 78.88095093 460.0972023 C77.86336096 463.49973347 76.8457459 466.90225714 75.828125 470.30477905 C66.48023912 501.56060517 57.13779591 532.81805103 47.80249023 564.07763672 C46.88786073 567.14030027 45.97322848 570.20296301 45.05859375 573.265625 C44.83247721 574.02278431 44.60636066 574.77994362 44.37339211 575.56004715 C38.67033772 594.65668128 32.9630732 613.75205705 27.2559166 632.84746552 C18.74788415 661.31433378 10.24143591 689.78167433 1.73828125 718.25 C1.50321995 719.03697517 1.26815865 719.82395035 1.02597427 720.63477325 C-2.50753214 732.46481636 -6.04089296 744.29490295 -9.57421875 756.125 C-13.34496778 768.75002518 -17.11577258 781.3750337 -20.88671875 794 C-21.12153835 794.78616951 -21.35635796 795.57233902 -21.5982933 796.38233185 C-27.39490016 815.7891479 -33.19260772 835.19563466 -38.9921875 854.6015625 C-39.39704313 855.95624791 -39.39704313 855.95624791 -39.81007767 857.3383007 C-42.55596664 866.52625135 -45.30197006 875.71416779 -48.04811668 884.90204144 C-53.81104261 904.18335523 -59.57234658 923.4651506 -65.32909393 942.74831009 C-69.33655008 956.17185882 -73.34622303 969.59474356 -77.35821533 983.01693726 C-79.77184415 991.09202577 -82.18416385 999.16750221 -84.59423828 1007.24365234 C-86.83357225 1014.74754743 -89.07523012 1022.25074387 -91.31963062 1029.75312519 C-92.49537817 1033.68357219 -93.67004092 1037.61433543 -94.84194946 1041.54592896 C-95.92220806 1045.16994559 -97.00541638 1048.79306661 -98.09100151 1052.4154911 C-98.48817349 1053.74272824 -98.88423467 1055.07029833 -99.27913094 1056.39821434 C-99.81578647 1058.20222898 -100.35673935 1060.00496363 -100.89794922 1061.80761719 C-101.19941864 1062.81669128 -101.50088806 1063.82576538 -101.81149292 1064.86541748 C-102.57421875 1067.125 -102.57421875 1067.125 -103.57421875 1068.125 C-105.92709168 1068.22263101 -108.25056561 1068.25497445 -110.60389709 1068.24525452 C-111.34795805 1068.24610894 -112.092019 1068.24696337 -112.85862726 1068.24784368 C-115.37070055 1068.24950071 -117.88270817 1068.2439735 -120.39477539 1068.23852539 C-122.18800352 1068.23824354 -123.98123177 1068.23840121 -125.77445984 1068.2389679 C-130.6585524 1068.23925596 -135.54262062 1068.23335786 -140.42670751 1068.22639394 C-145.52498455 1068.22016181 -150.62326209 1068.21955671 -155.72154236 1068.21836853 C-165.38299034 1068.2152548 -175.04442707 1068.20704084 -184.70587009 1068.19701904 C-195.70205498 1068.18585921 -206.69824038 1068.18034778 -217.69442952 1068.17532361 C-240.32103218 1068.16485826 -262.94762483 1068.14725801 -285.57421875 1068.125 C-294.18336783 1040.27426883 -294.18336783 1040.27426883 -297.5546875 1028.5546875 C-297.8853421 1027.41263855 -298.2159967 1026.2705896 -298.55667114 1025.09393311 C-299.26125259 1022.65967174 -299.9648981 1020.2251393 -300.66763306 1017.79034424 C-301.80848665 1013.83797757 -302.95196721 1009.88637965 -304.09643555 1005.93505859 C-304.29501946 1005.24943911 -304.49360338 1004.56381962 -304.69820499 1003.85742378 C-305.10485847 1002.45349698 -305.51152726 1001.04957462 -305.91821098 999.64565659 C-306.53843298 997.50431196 -307.15840121 995.36289398 -307.77833557 993.22146606 C-312.24072665 977.80999223 -316.73334563 962.40735605 -321.22848892 947.00540924 C-322.11146421 943.97991491 -322.99425612 940.95436709 -323.87704945 937.92881966 C-325.66136079 931.81355315 -327.44584651 925.69833756 -329.23050976 919.58317375 C-333.19175453 906.00984413 -337.15065483 892.43583093 -341.10943413 878.86178207 C-342.64119336 873.60964202 -344.17310009 868.35754499 -345.70507812 863.10546875 C-349.82987354 848.96430729 -353.95402288 834.82295825 -358.07616997 820.68102455 C-360.01276092 814.0372743 -361.9496719 807.39361735 -363.88671875 800.75 C-364.09791477 800.02563374 -364.30911079 799.30126747 -364.5267067 798.55495071 C-373.04924543 769.32502341 -381.59909005 740.10310231 -390.15711212 710.88354588 C-391.15823772 707.46534844 -392.15921645 704.04710799 -393.16019058 700.6288662 C-393.84813651 698.27989285 -394.53634873 695.93099764 -395.22457886 693.58210754 C-395.64216272 692.15622295 -396.05973539 690.73033508 -396.47729492 689.30444336 C-396.83587082 688.0804332 -397.19444672 686.85642303 -397.56388855 685.59532166 C-398.57904496 682.10842274 -399.5795462 678.61778582 -400.57421875 675.125 C-406.05929829 691.94289763 -411.05647618 708.88887043 -415.94766617 725.88680267 C-417.0280128 729.63829514 -418.11206686 733.38871566 -419.19604492 737.13916016 C-419.41865211 737.90938633 -419.64125929 738.6796125 -419.87061214 739.47317886 C-420.32637503 741.05010091 -420.78215104 742.62701916 -421.23793983 744.20393372 C-421.93430101 746.61362083 -422.6302958 749.02341352 -423.32621765 751.43322754 C-428.24795573 768.47310181 -433.20598536 785.50237292 -438.16732788 802.53075027 C-439.37612624 806.67985079 -440.58452688 810.82906713 -441.79296875 814.97827148 C-443.50117558 820.84328122 -445.20952457 826.70824951 -446.91803551 832.57317066 C-451.25504368 847.46120324 -455.58953848 862.34996734 -459.92391682 877.23876572 C-461.5957236 882.98147772 -463.26767377 888.72414796 -464.93969727 894.46679688 C-469.289704 909.4072334 -473.63930116 924.34778869 -477.98706055 939.28887939 C-479.71696558 945.2336882 -481.44712793 951.17842211 -483.17733765 957.12314224 C-484.32782351 961.07609384 -485.47819249 965.02907933 -486.62817383 968.98217773 C-496.24516476 1002.03907996 -505.9150137 1035.08035114 -515.57421875 1068.125 C-575.96421875 1068.125 -636.35421875 1068.125 -698.57421875 1068.125 C-709.95921875 1029.02 -709.95921875 1029.02 -721.57421875 989.125 C-727.71306319 968.07237467 -733.85257388 947.01994967 -739.99462891 925.96826172 C-742.35351235 917.88239781 -744.71096164 909.79611641 -747.06798172 901.70970917 C-749.00731326 895.05640064 -750.94693489 888.40317667 -752.88671875 881.75 C-753.1011412 881.01456215 -753.31556366 880.2791243 -753.53648376 879.52140045 C-760.57143697 855.39351218 -767.627136 831.27173723 -774.69078827 807.15223694 C-784.34638132 774.18224613 -793.96584845 741.20188965 -803.56362915 708.21502686 C-803.7983556 707.40829277 -804.03308205 706.60155869 -804.27492142 705.77037811 C-804.74729788 704.14685025 -805.21966677 702.52332018 -805.69202805 700.8997879 C-810.85343793 683.16012574 -816.02495816 665.42341758 -821.19921875 647.6875 C-821.41471123 646.94885208 -821.6302037 646.21020416 -821.85222626 645.44917297 C-823.58616854 639.50576283 -825.32014082 633.56236144 -827.05422211 627.61899185 C-830.06020647 617.31630485 -833.06472978 607.013193 -836.06798172 596.70970917 C-838.00731326 590.05640064 -839.94693489 583.40317667 -841.88671875 576.75 C-842.1011412 576.01456215 -842.31556366 575.2791243 -842.53648376 574.52140045 C-849.57143697 550.39351218 -856.627136 526.27173723 -863.69078827 502.15223694 C-871.90380202 474.10807783 -880.0971959 446.05831638 -888.26171875 418 C-888.49977612 417.1819136 -888.73783348 416.36382721 -888.98310471 415.52095032 C-890.89044376 408.96634121 -892.79770371 402.41170908 -894.70485115 395.85704422 C-899.80149755 378.34055061 -904.90428593 360.82585147 -910.01171875 343.3125 C-910.22449589 342.58285412 -910.43727303 341.85320824 -910.65649796 341.10145187 C-918.15572013 315.3861527 -925.679667 289.67812142 -933.20805359 263.97134781 C-941.87662835 234.37059566 -950.51271395 204.76049898 -959.12915039 175.14453125 C-959.84085032 172.69832377 -960.55255201 170.2521168 -961.26426125 167.80591202 C-961.73591718 166.18478754 -962.2075651 164.56366074 -962.67920494 162.94253159 C-967.24732646 147.24147067 -971.8260926 131.54352517 -976.40717888 115.8462429 C-979.19690273 106.28685932 -981.98449228 96.72685337 -984.77163696 87.16671753 C-985.1915069 85.72654184 -985.61137792 84.28636647 -986.03125 82.84619141 C-986.23916861 82.13301443 -986.44708721 81.41983746 -986.66130638 80.68504906 C-988.18484497 75.45955309 -989.70948038 70.23437773 -991.234375 65.00927734 C-993.17830539 58.34808922 -995.1201708 51.68630275 -997.05962658 45.02381039 C-998.06667697 41.56453597 -999.07461212 38.10552565 -1000.08486938 34.64718628 C-1001.18449088 30.88282376 -1002.27995836 27.11726 -1003.375 23.3515625 C-1003.70197876 22.23456467 -1004.02895752 21.11756683 -1004.36584473 19.96672058 C-1004.80603943 18.44912895 -1004.80603943 18.44912895 -1005.25512695 16.90087891 C-1005.51155472 16.02106354 -1005.76798248 15.14124817 -1006.03218079 14.23477173 C-1006.57421875 12.125 -1006.57421875 12.125 -1006.57421875 10.125 C-946.51421875 10.125 -886.45421875 10.125 -824.57421875 10.125 C-818.94950732 26.9991343 -818.94950732 26.9991343 -817.22851562 32.93725586 C-816.94081519 33.92527742 -816.94081519 33.92527742 -816.64730263 34.93325901 C-816.02641763 37.06799334 -815.40966571 39.2038962 -814.79296875 41.33984375 C-814.34262508 42.89115062 -813.89200457 44.44237715 -813.44113159 45.99353027 C-812.48223929 49.2944248 -811.52513994 52.59583148 -810.56951904 55.89767456 C-809.04495729 61.16516011 -807.51623632 66.43143304 -805.98681641 71.69750977 C-804.40326445 77.15057927 -802.8199176 82.60370763 -801.23794556 88.05723572 C-796.58583998 104.09397902 -791.91425042 120.12499699 -787.23583984 136.15408325 C-785.94070546 140.59146362 -784.64607616 145.02899125 -783.3515625 149.46655273 C-782.91839652 150.95142126 -782.48523002 152.43628962 -782.05206299 153.92115784 C-781.83774879 154.65581331 -781.6234346 155.39046879 -781.40262604 156.14738655 C-780.53967738 159.1054359 -779.67664815 162.06346175 -778.81361771 165.02148724 C-774.89056812 178.46772009 -770.96878943 191.91432358 -767.04702854 205.36093235 C-765.51215715 210.62354225 -763.97717175 215.8861189 -762.44213867 221.14868164 C-758.31763805 235.28887397 -754.19377083 249.42925019 -750.07190704 263.57021141 C-748.1354368 270.21354984 -746.19864955 276.85679584 -744.26171875 283.5 C-743.94028522 284.60245623 -743.94028522 284.60245623 -743.61235809 285.7271843 C-736.57723794 309.85553499 -729.52143942 333.97779185 -722.45764923 358.09776306 C-712.80205618 391.06775387 -703.18258905 424.04811035 -693.58480835 457.03497314 C-693.3500819 457.84170723 -693.11535545 458.64844131 -692.87351608 459.47962189 C-692.40113962 461.10314975 -691.92877073 462.72667982 -691.45640945 464.3502121 C-686.29499957 482.08987426 -681.12347934 499.82658242 -675.94921875 517.5625 C-675.73372627 518.30114792 -675.5182338 519.03979584 -675.29621124 519.80082703 C-673.56226896 525.74423717 -671.82829668 531.68763856 -670.09421539 537.63100815 C-667.08823103 547.93369515 -664.08370772 558.236807 -661.08045578 568.54029083 C-659.14112424 575.19359936 -657.20150261 581.84682333 -655.26171875 588.5 C-655.0472963 589.23543785 -654.83287384 589.9708757 -654.61195374 590.72859955 C-647.57700053 614.85648782 -640.5213015 638.97826277 -633.45764923 663.09776306 C-623.80205618 696.06775387 -614.18258905 729.04811035 -604.58480835 762.03497314 C-604.3500819 762.84170723 -604.11535545 763.64844131 -603.87351608 764.47962189 C-603.40113962 766.10314975 -602.92877073 767.72667982 -602.45640945 769.3502121 C-597.29499957 787.08987426 -592.12347934 804.82658242 -586.94921875 822.5625 C-586.73372627 823.30114792 -586.5182338 824.03979584 -586.29621124 824.80082703 C-584.56226896 830.74423717 -582.82829668 836.68763856 -581.09421539 842.63100815 C-578.0882777 852.93353519 -575.08379975 863.23648671 -572.08059311 873.53981018 C-553.6539078 936.75692828 -535.18639392 999.96221143 -516.57421875 1063.125 C-504.91748967 1018.54450944 -493.26648134 973.96253385 -481.63671875 929.375 C-481.38996399 928.42896408 -481.14320923 927.48292816 -480.88897705 926.50822449 C-478.62570003 917.83093443 -476.36254654 909.15361215 -474.09951782 900.47625732 C-469.34037946 882.22783961 -464.58003402 863.97973689 -459.81949806 845.73168373 C-458.07914535 839.06055983 -456.33886964 832.38941585 -454.59863281 825.71826172 C-446.59016019 795.01812153 -446.59016019 795.01812153 -443.1979475 782.0179224 C-442.66362064 779.970152 -442.12932465 777.92237354 -441.59505939 775.87458706 C-440.26153333 770.76349367 -438.92746325 765.65254348 -437.5922699 760.54188538 C-435.00532526 750.63747852 -432.427235 740.7309287 -429.86889648 730.8190918 C-428.90203927 727.07831222 -427.93394602 723.33785482 -426.96484375 719.59765625 C-426.73150896 718.696752 -426.49817417 717.79584774 -426.25776863 716.86764336 C-423.6459031 706.80314268 -420.95535628 696.77286581 -418.01679993 686.79852295 C-416.66206924 682.19928201 -415.34595623 677.58934851 -414.02938843 672.97906494 C-413.18634759 670.10659876 -412.27675952 667.26271112 -411.35864258 664.41357422 C-407.2762859 650.79798191 -409.91835134 640.80173434 -414.42929077 627.57363892 C-416.23759014 622.12685825 -417.77516095 616.60620871 -419.33666611 611.08457947 C-420.28749027 607.7380186 -421.26055431 604.3979427 -422.23217773 601.05737305 C-422.6372371 599.66263986 -423.04225568 598.26789483 -423.44723511 596.87313843 C-423.65204876 596.16803005 -423.85686241 595.46292168 -424.06788254 594.73644638 C-424.71219764 592.51780843 -425.35606217 590.29904018 -425.99978638 588.08023071 C-434.84384563 557.59644794 -443.72971019 527.1248663 -452.62486267 496.65596008 C-455.44562871 486.99357893 -458.26416641 477.33055065 -461.08080482 467.66696548 C-470.26515131 436.15648157 -479.46606237 404.65092494 -488.69078827 373.15223694 C-496.90380202 345.10807783 -505.0971959 317.05831638 -513.26171875 289 C-513.49977612 288.1819136 -513.73783348 287.36382721 -513.98310471 286.52095032 C-515.89044376 279.96634121 -517.79770371 273.41170908 -519.70485115 266.85704422 C-524.80149755 249.34055061 -529.90428593 231.82585147 -535.01171875 214.3125 C-535.22449589 213.58285412 -535.43727303 212.85320824 -535.65649796 212.10145187 C-542.14981771 189.83545465 -548.66028101 167.57450507 -555.17890739 145.31590462 C-556.93381853 139.32328839 -558.68790223 133.33043046 -560.44140625 127.33740234 C-560.68867525 126.49230291 -560.93594425 125.64720348 -561.19070625 124.77649498 C-562.44478495 120.49026079 -563.69874124 116.20399081 -564.9526062 111.91769409 C-567.58582563 102.91671628 -570.22115313 93.916362 -572.85986328 84.91699219 C-575.30432213 76.58003796 -577.74531736 68.24207825 -580.18235397 59.90295124 C-581.46662496 55.50885348 -582.75254781 51.1152555 -584.04266357 46.72286987 C-585.24114082 42.642356 -586.43511523 38.56055194 -587.62563896 34.47771072 C-588.06183052 32.98477121 -588.49966595 31.49231084 -588.93928719 30.00037766 C-589.54074346 27.95831613 -590.13618997 25.91459209 -590.73022461 23.87036133 C-591.06420761 22.72980789 -591.39819061 21.58925446 -591.74229431 20.41413879 C-592.57421875 17.125 -592.57421875 17.125 -593.57421875 10.125 C-533.51421875 10.125 -473.45421875 10.125 -411.57421875 10.125 C-403.321026 37.8321471 -395.07952507 65.53411707 -387.03634644 93.30163574 C-385.44481153 98.79440984 -383.85067308 104.28642652 -382.25610352 109.77832031 C-381.98345893 110.71736395 -381.71081434 111.65640759 -381.4299078 112.62390709 C-380.87835317 114.52356397 -380.32679213 116.423219 -379.77522469 118.32287216 C-378.9528203 121.15556356 -378.13061214 123.98831186 -377.30845642 126.82107544 C-372.2227771 144.34291244 -367.12121206 161.86009413 -362.01171875 179.375 C-361.58623189 180.83371971 -361.16074565 182.2924396 -360.73526001 183.75115967 C-353.48701665 208.59906336 -346.21449449 233.43984493 -338.93997955 258.28006744 C-329.79061961 289.5227152 -320.67971912 320.7764371 -311.58480835 352.03497314 C-311.23271868 353.24507427 -311.23271868 353.24507427 -310.87351608 354.47962189 C-310.40113962 356.10314975 -309.92877073 357.72667982 -309.45640945 359.3502121 C-304.29499957 377.08987426 -299.12347934 394.82658242 -293.94921875 412.5625 C-293.62598003 413.67047188 -293.62598003 413.67047188 -293.29621124 414.80082703 C-291.56226896 420.74423717 -289.82829668 426.68763856 -288.09421539 432.63100815 C-285.08823103 442.93369515 -282.08370772 453.236807 -279.08045578 463.54029083 C-277.14112424 470.19359936 -275.20150261 476.84682333 -273.26171875 483.5 C-272.94008507 484.60315678 -272.94008507 484.60315678 -272.61195374 485.72859955 C-265.57700053 509.85648782 -258.5213015 533.97826277 -251.45764923 558.09776306 C-241.80205618 591.06775387 -232.18258905 624.04811035 -222.58480835 657.03497314 C-222.23271868 658.24507427 -222.23271868 658.24507427 -221.87351608 659.47962189 C-221.40113962 661.10314975 -220.92877073 662.72667982 -220.45640945 664.3502121 C-215.29499957 682.08987426 -210.12347934 699.82658242 -204.94921875 717.5625 C-204.73372627 718.30114792 -204.5182338 719.03979584 -204.29621124 719.80082703 C-202.56226896 725.74423717 -200.82829668 731.68763856 -199.09421539 737.63100815 C-196.08823103 747.93369515 -193.08370772 758.236807 -190.08045578 768.54029083 C-188.14112424 775.19359936 -186.20150261 781.84682333 -184.26171875 788.5 C-184.0472963 789.23543785 -183.83287384 789.9708757 -183.61195374 790.72859955 C-176.57700053 814.85648782 -169.5213015 838.97826277 -162.45764923 863.09776306 C-154.48476414 890.32197878 -146.52923593 917.55114529 -138.60292435 944.7889595 C-137.65536349 948.04498773 -136.70759007 951.30095407 -135.75982189 954.55692196 C-131.43761074 969.40572335 -127.1170862 984.25501208 -122.80209446 999.10591316 C-120.82878834 1005.89699331 -118.85371007 1012.6875566 -116.87740993 1019.47776604 C-115.48562515 1024.26008344 -114.09598498 1029.04301671 -112.70801544 1033.82644272 C-111.85775203 1036.75478097 -111.00539841 1039.68250764 -110.15243912 1042.61006165 C-109.75907517 1043.96174329 -109.36657263 1045.31367597 -108.97500229 1046.6658783 C-108.44032617 1048.51181251 -107.9022523 1050.35676155 -107.36401367 1052.20166016 C-106.91514046 1053.7461937 -106.91514046 1053.7461937 -106.4571991 1055.32192993 C-105.61787855 1057.98639954 -104.64899788 1060.54763514 -103.57421875 1063.125 C-103.30844528 1062.16276016 -103.04267181 1061.20052032 -102.7688446 1060.2091217 C-89.89083888 1013.58631867 -76.98998706 966.97000359 -64.01171875 920.375 C-63.73280918 919.37363007 -63.45389961 918.37226013 -63.16653824 917.34054565 C-61.75275362 912.26467062 -60.33892297 907.18880841 -58.9250946 902.11294556 C-58.6458634 901.11045399 -58.36663219 900.10796242 -58.07893944 899.07509232 C-57.51662388 897.05628809 -56.95429811 895.03748671 -56.39196205 893.0186882 C-50.23407069 870.91115515 -44.08999067 848.7997935 -37.94921875 826.6875 C-37.43187587 824.82466599 -36.91453172 822.96183233 -36.39718628 821.09899902 C-34.33481524 813.67283127 -32.27252966 806.24663979 -30.21040344 798.82040405 C-26.58493888 785.76420072 -22.95875231 772.70819811 -19.33203125 759.65234375 C-19.07398586 758.72340364 -18.81594048 757.79446354 -18.55007553 756.83737373 C-17.24630449 752.14392961 -15.9425214 747.45048884 -14.63873291 742.75704956 C-12.29420129 734.31707181 -9.9497763 725.87706443 -7.60534286 717.4370594 C-6.30330582 712.74970507 -5.00126194 708.06235263 -3.69921875 703.375 C-3.17838538 701.50000001 -2.65755205 699.62500001 -2.13671875 697.75 C-1.09505208 694 -0.05338542 690.25 0.98828125 686.5 C1.24609312 685.5718772 1.50390499 684.64375441 1.76952934 683.68750668 C2.2903689 681.81248439 2.81120859 679.93746213 3.33204842 678.06243992 C4.63403756 673.37528124 5.93602442 668.68812192 7.23800659 664.0009613 C9.58287891 655.55938488 11.92776727 647.11781292 14.27274132 638.67626476 C15.57637012 633.98339841 16.8799855 629.29052832 18.18359375 624.59765625 C18.44164921 623.6686809 18.69970467 622.73970554 18.96557999 621.78257942 C22.58889575 608.73888135 26.21146363 595.69497577 29.8335495 582.65093613 C41.41509226 540.94338274 53.008958 499.2392882 64.62014771 457.53997803 C70.81846967 435.27978508 77.01331239 413.0186383 83.1953125 390.75390625 C83.47060728 389.76242836 83.74590206 388.77095047 84.02953911 387.7494278 C85.66603359 381.8554466 87.30239638 375.96142884 88.93873978 370.0674057 C89.20258846 369.11703682 89.46643715 368.16666794 89.73828125 367.1875 C90.00011578 366.2443821 90.2619503 365.30126419 90.53171921 364.32956696 C98.79020479 334.58358042 107.07433366 304.84504569 115.42578125 275.125 C115.09578125 274.795 114.76578125 274.465 114.42578125 274.125 C113.83796875 274.78242187 113.83796875 274.78242187 113.23828125 275.453125 C93.53240441 296.34814959 65.27847219 310.15656623 37.42578125 316.125 C36.77512695 316.27308105 36.12447266 316.42116211 35.45410156 316.57373047 C0.50529458 324.30039436 -36.64493998 318.67873699 -68.57421875 303.125 C-70.25064453 302.30902344 -70.25064453 302.30902344 -71.9609375 301.4765625 C-108.22809908 282.83987874 -135.93802278 249.63260336 -149.0390625 211.1796875 C-162.34039523 169.294284 -158.8932131 124.22700254 -138.82421875 85.125 C-131.01037383 70.46677596 -121.05687543 58.0485907 -109.57421875 46.125 C-108.98511719 45.48433594 -108.39601563 44.84367188 -107.7890625 44.18359375 C-80.2814539 15.05391486 -38.96490154 1.89207413 0 0 Z " fill="#FFFFFF" transform="translate(3051.57421875,599.875)"/>
<path d="M0 0 C41.16837012 -1.03081991 82.34947698 14.54621117 112.17016602 42.90771484 C113.61752188 44.3079368 115.05707429 45.71621204 116.49609375 47.125 C117.23085937 47.80949219 117.965625 48.49398437 118.72265625 49.19921875 C128.98228924 58.94791384 136.68125496 70.81432347 143.49609375 83.125 C144.02614014 84.08212891 144.02614014 84.08212891 144.56689453 85.05859375 C164.37261342 121.39802075 168.01278476 165.56622662 156.8359375 205.20703125 C148.00245728 234.48604546 131.66585666 259.55591698 109.15110171 280.11604428 C102.01846281 286.63269279 95.12300547 293.3548466 88.29931641 300.19238281 C87.14641457 301.34392462 85.99330122 302.49525469 84.83999634 303.64639282 C81.75130166 306.73058724 78.66570751 309.81786519 75.58086061 312.90590763 C72.33189664 316.15743092 69.08046226 319.4064825 65.82943726 322.65594482 C60.37944949 328.10412252 54.93155286 333.55438453 49.48486328 339.00585938 C43.20470015 345.29147657 36.92092454 351.57346509 30.63528788 357.85360837 C25.21230661 363.2720416 19.7912889 368.69243354 14.37188756 374.11444736 C11.14628051 377.34160613 7.92001891 380.56810274 4.69197464 383.79282379 C1.66084626 386.82104833 -1.36779644 389.85173775 -4.3945961 392.88428879 C-5.50023885 393.99124512 -6.6067173 395.09736753 -7.71412659 396.20255661 C-14.47392688 402.91742517 -14.47392688 402.91742517 -20.86026001 409.9833374 C-26.28277869 416.30670969 -32.32458234 422.06729824 -38.22265625 427.94140625 C-39.61155135 429.32837961 -41.00021705 430.71558272 -42.38867188 432.10299683 C-45.3669749 435.07815094 -48.34682144 438.05174718 -51.32788086 441.0241394 C-56.04622193 445.7289031 -60.76069733 450.43752777 -65.47460938 455.14672852 C-76.3316023 465.99170277 -87.19361035 476.83164949 -98.05566406 487.67155457 C-108.01494148 497.61062782 -117.97314579 507.55077001 -127.9272995 517.49497509 C-132.60883479 522.17154232 -137.2927942 526.84566357 -141.97865295 531.51789856 C-144.89774985 534.42951135 -147.81475123 537.34321671 -150.73120117 540.25748062 C-152.07870083 541.60311582 -153.42706088 542.9478901 -154.77636719 544.29171371 C-156.62604674 546.13411658 -158.47255165 547.97964702 -160.31835938 549.82592773 C-160.8457093 550.3496827 -161.37305923 550.87343767 -161.91638947 551.413064 C-164.72856216 554.23290117 -167.3409502 557.1222971 -169.88581848 560.1869278 C-173.34792541 564.17683463 -177.073744 566.74013833 -181.57885742 569.43322754 C-212.04530812 588.62317715 -247.54484365 616.15705381 -255.9911499 653.29437256 C-261.21893898 678.54446075 -261.08980833 704.79967566 -260.87890625 730.46875 C-260.87149084 731.4554249 -260.86407542 732.44209981 -260.8564353 733.45867395 C-260.64225513 759.2062555 -259.63590849 784.90655814 -258.37527752 810.62141514 C-257.65576746 825.43388056 -257.13442837 840.24343274 -256.75292969 855.06835938 C-256.72593782 856.11489329 -256.69894595 857.16142721 -256.67113614 858.23967427 C-256.53652636 863.50138631 -256.40542796 868.76317858 -256.27627945 874.02502728 C-256.02197596 884.36108286 -255.74773777 894.69659064 -255.46337891 905.03186035 C-255.43578578 906.03613612 -255.40819265 907.0404119 -255.37976336 908.07512027 C-254.97553795 922.62966352 -254.46325778 937.17733743 -253.86083984 951.72497559 C-253.80422782 953.10325246 -253.80422782 953.10325246 -253.74647212 954.50937331 C-253.3957057 963.03803759 -253.04256122 971.5664901 -252.6386354 980.09282684 C-251.29095595 1009.49961755 -251.50390625 1038.60457501 -251.50390625 1068.125 C-311.56390625 1068.125 -371.62390625 1068.125 -433.50390625 1068.125 C-434.65637318 994.36711655 -434.65637318 994.36711655 -434.7743988 967.80799067 C-434.79366608 963.65805211 -434.81705465 959.50813578 -434.83984375 955.35821533 C-434.8783904 948.25429378 -434.91474188 941.1503642 -434.94946289 934.04642296 C-434.99984203 923.75613179 -435.05493573 913.46586929 -435.11114407 903.17560849 C-435.2025732 886.43064154 -435.29181 869.68566386 -435.37890625 852.94067383 C-435.38405967 851.95008773 -435.38921309 850.95950163 -435.39452267 849.93889777 C-435.4522456 838.83528462 -435.50951182 827.73166918 -435.56640625 816.62805176 C-435.58722906 812.56624344 -435.60806222 808.50443517 -435.62890625 804.44262695 C-435.63405211 803.43967044 -435.63919798 802.43671393 -435.64449978 801.4033648 C-435.73058528 784.6442752 -435.82016856 767.88520624 -435.91242218 751.12614948 C-435.96878026 740.86040134 -436.02216213 730.59464645 -436.07153416 720.32886229 C-436.10545472 713.32059208 -436.14261352 706.31234372 -436.18225765 699.30410358 C-436.20492893 695.27710698 -436.22618096 691.2501169 -436.2434082 687.22309303 C-436.29390077 667.65740498 -436.29390077 667.65740498 -436.89752197 648.10340881 C-436.92744799 647.39314535 -436.957374 646.68288188 -436.98820686 645.95109528 C-437.34952327 639.57512939 -438.81722371 633.50553497 -440.74032593 627.43501282 C-440.96309582 626.72238092 -441.18586571 626.00974903 -441.4153862 625.27552223 C-441.64569157 624.54006865 -441.87599693 623.80461506 -442.11328125 623.046875 C-442.59377727 621.45498279 -443.07228494 619.86248929 -443.54898071 618.26945496 C-444.56457355 614.88998332 -445.59321269 611.51489838 -446.63299561 608.14279175 C-448.29344436 602.75736218 -449.92347118 597.36300208 -451.54931641 591.96704102 C-453.50733177 585.47529422 -455.47192555 578.98562017 -457.44610023 572.49876881 C-460.62650629 562.04715449 -463.76338184 551.58354017 -466.85546875 541.10546875 C-467.06486084 540.39594433 -467.27425293 539.68641991 -467.48999023 538.95539474 C-468.53696614 535.40637598 -469.58280353 531.85702306 -470.62805176 528.30749512 C-471.890657 524.02084646 -473.15721294 519.73537174 -474.42480469 515.45019531 C-474.63770393 514.73047483 -474.85060318 514.01075436 -475.06995392 513.26922417 C-475.50379961 511.80264241 -475.93765537 510.33606362 -476.371521 508.86948776 C-477.47829445 505.12781193 -478.58438235 501.3859335 -479.69042969 497.64404297 C-479.91616417 496.88035967 -480.14189865 496.11667637 -480.37447357 495.32985115 C-485.97643384 476.37704406 -491.5753171 457.42332741 -497.17459106 438.46972656 C-504.55131039 413.49950105 -511.9307859 388.53009432 -519.31640625 363.5625 C-519.52868866 362.84486481 -519.74097107 362.12722961 -519.95968628 361.3878479 C-521.87128683 354.92560453 -523.78296815 348.46338505 -525.69473267 342.00119019 C-528.70828516 331.81469561 -531.72145987 321.62808935 -534.734375 311.44140625 C-534.95151972 310.70723921 -535.16866444 309.97307217 -535.3923893 309.21665764 C-536.49038807 305.50431334 -537.58838081 301.79196725 -538.68637085 298.07962036 C-540.65687003 291.41729679 -542.62742256 284.75498899 -544.59797096 278.09267998 C-545.69161823 274.39512063 -546.78526207 270.69756026 -547.87890625 267 C-548.31640623 265.52083333 -548.75390623 264.04166666 -549.19140625 262.5625 C-550.06640625 259.60416667 -550.94140625 256.64583333 -551.81640625 253.6875 C-552.03296718 252.95531785 -552.2495281 252.2231357 -552.47265148 251.46876621 C-552.91016744 249.98954552 -553.34768334 248.51032482 -553.78519917 247.03110409 C-554.87870443 243.3340138 -555.97221084 239.63692385 -557.0657196 235.93983459 C-559.03739326 229.27371704 -561.00905876 222.60759707 -562.98068142 215.94146442 C-564.07826111 212.23050586 -565.17584752 208.51954927 -566.2734375 204.80859375 C-566.4906074 204.07434111 -566.70777729 203.34008846 -566.93152809 202.58358574 C-570.35861336 190.99664582 -573.78622174 179.40986072 -577.21403885 167.82313728 C-579.55717529 159.90280496 -581.90004995 151.98239535 -584.2421875 144.06176758 C-584.45561609 143.34000052 -584.66904469 142.61823347 -584.88894081 141.87459469 C-585.76732925 138.90406625 -586.64571284 135.93353638 -587.5240593 132.96299553 C-590.59963209 122.56162128 -593.67703702 112.16079074 -596.75579166 101.76035786 C-599.13002904 93.73962223 -601.50314096 85.71855407 -603.87557125 77.69728374 C-605.32181739 72.8076528 -606.76857896 67.91817578 -608.21664429 63.02908325 C-609.5793141 58.4282693 -610.94054194 53.827031 -612.30075645 49.22549057 C-612.79972463 47.53840757 -613.29919266 45.8514723 -613.79923439 44.16470718 C-614.4951712 41.81684394 -615.18918254 39.46841869 -615.8828125 37.11987305 C-616.07501468 36.47309381 -616.26721685 35.82631456 -616.46524334 35.15993595 C-618.91660059 26.84304875 -621.18250607 18.48204066 -623.50390625 10.125 C-563.11390625 10.125 -502.72390625 10.125 -440.50390625 10.125 C-432.91390625 35.865 -425.32390625 61.605 -417.50390625 88.125 C-411.37015128 108.87152416 -405.23569701 129.61782747 -399.09667969 150.36279297 C-396.48424253 159.190849 -393.87284554 168.01921257 -391.26171875 176.84765625 C-390.93652567 177.94716016 -390.93652567 177.94716016 -390.60476303 179.06887627 C-389.50930315 182.77273068 -388.4138584 186.47658956 -387.31842041 190.18045044 C-385.34904275 196.8392225 -383.37953127 203.49795499 -381.41003036 210.1566906 C-380.31631689 213.85445879 -379.222612 217.55222952 -378.12890625 221.25 C-377.69140629 222.72916668 -377.25390629 224.20833335 -376.81640625 225.6875 C-375.94140625 228.64583333 -375.06640625 231.60416667 -374.19140625 234.5625 C-373.97484532 235.29468215 -373.7582844 236.0268643 -373.53516102 236.78123379 C-373.09764506 238.26045448 -372.66012916 239.73967518 -372.22261333 241.21889591 C-371.12910807 244.9159862 -370.03560166 248.61307615 -368.9420929 252.31016541 C-366.97041924 258.97628296 -364.99875374 265.64240293 -363.02713108 272.30853558 C-361.92955139 276.01949414 -360.83196498 279.73045073 -359.734375 283.44140625 C-359.40862016 284.54278522 -359.40862016 284.54278522 -359.07628441 285.66641426 C-356.07205712 295.82367571 -353.06746257 305.98082845 -350.06261063 316.13790512 C-339.92448381 350.40731199 -329.79366088 384.67886957 -319.6687088 418.95217133 C-310.11483606 451.29225893 -300.55452571 483.63043561 -290.98794556 515.96676636 C-287.63146718 527.31214815 -284.27638989 538.65794376 -280.921875 550.00390625 C-276.92817671 563.51172158 -272.93321998 577.01916383 -268.93611145 590.52597046 C-268.53846182 591.86968979 -268.14081269 593.21340927 -267.74316406 594.55712891 C-267.55158816 595.20448942 -267.36001226 595.85184994 -267.16263103 596.51882744 C-265.95377079 600.60398532 -264.74568602 604.68937179 -263.53808594 608.77490234 C-262.17841196 613.37481358 -260.81716431 617.97425488 -259.4541626 622.57318115 C-258.99432374 624.12576355 -258.53511571 625.67853294 -258.07659912 627.23150635 C-257.47595809 629.26552768 -256.87309149 631.29887461 -256.26953125 633.33203125 C-255.94758789 634.4197583 -255.62564453 635.50748535 -255.29394531 636.62817383 C-254.5866749 639.08992212 -254.5866749 639.08992212 -253.50390625 641.125 C-253.09140625 640.6403125 -252.67890625 640.155625 -252.25390625 639.65625 C-247.25672255 633.8559475 -241.9274842 628.48299217 -236.46484375 623.125 C-233.18689991 619.88502463 -230.01255064 616.61802931 -227.00390625 613.125 C-222.75357813 608.19037869 -218.11132287 603.68246611 -213.46484375 599.125 C-210.18689991 595.88502463 -207.01255064 592.61802931 -204.00390625 589.125 C-199.75357813 584.19037869 -195.11132287 579.68246611 -190.46484375 575.125 C-187.18689991 571.88502463 -184.01255064 568.61802931 -181.00390625 565.125 C-176.75357813 560.19037869 -172.11132287 555.68246611 -167.46484375 551.125 C-164.19725323 547.89525802 -161.03238292 544.63988375 -158.03515625 541.15625 C-153.5783002 535.98185023 -148.68944235 531.26249431 -143.8203125 526.48046875 C-139.78568135 522.48961298 -135.96418887 518.40847991 -132.26367188 514.10742188 C-128.53998716 509.91259393 -124.46735086 506.05083073 -120.46484375 502.125 C-117.18689991 498.88502463 -114.01255064 495.61802931 -111.00390625 492.125 C-106.75357813 487.19037869 -102.11132287 482.68246611 -97.46484375 478.125 C-94.18689991 474.88502463 -91.01255064 471.61802931 -88.00390625 468.125 C-83.75357813 463.19037869 -79.11132287 458.68246611 -74.46484375 454.125 C-71.18689991 450.88502463 -68.01255064 447.61802931 -65.00390625 444.125 C-60.75357813 439.19037869 -56.11132287 434.68246611 -51.46484375 430.125 C-48.18689991 426.88502463 -45.01255064 423.61802931 -42.00390625 420.125 C-37.75357813 415.19037869 -33.11132287 410.68246611 -28.46484375 406.125 C-25.19725323 402.89525802 -22.03238292 399.63988375 -19.03515625 396.15625 C-14.5783002 390.98185023 -9.68944235 386.26249431 -4.8203125 381.48046875 C-0.78568135 377.48961298 3.03581113 373.40847991 6.73632812 369.10742188 C10.46001284 364.91259393 14.53264914 361.05083073 18.53515625 357.125 C21.81310009 353.88502463 24.98744936 350.61802931 27.99609375 347.125 C32.24642187 342.19037869 36.88867713 337.68246611 41.53515625 333.125 C45.48557574 329.22033826 49.21966033 325.21216375 52.84423828 321.00390625 C55.2584351 318.25787333 57.82585746 315.68584753 60.43359375 313.125 C60.92666016 312.63644531 61.41972656 312.14789062 61.92773438 311.64453125 C63.11482604 310.46896475 64.30509873 309.29661174 65.49609375 308.125 C64.70912109 308.36283203 64.70912109 308.36283203 63.90625 308.60546875 C62.19784262 309.11998079 60.48800946 309.62976585 58.77734375 310.13671875 C56.41681176 310.8476885 54.06336745 311.58234755 51.71484375 312.33203125 C11.3512303 325.05650291 -32.77386307 321.18666823 -70.58203125 302.21484375 C-76.84630387 298.94285248 -82.74904286 295.22162615 -88.50390625 291.125 C-89.0664209 290.72474609 -89.62893555 290.32449219 -90.20849609 289.91210938 C-126.02001358 263.98983681 -148.19733078 225.7522766 -155.16064453 182.39404297 C-155.88109434 177.63169549 -156.35589097 172.93871448 -156.50390625 168.125 C-156.54386719 166.93390625 -156.58382813 165.7428125 -156.625 164.515625 C-157.3806223 119.53387411 -140.45101299 78.57707237 -109.51171875 46.12890625 C-105.17173214 41.70937648 -100.43743928 37.86079669 -95.50390625 34.125 C-94.6325 33.44953125 -93.76109375 32.7740625 -92.86328125 32.078125 C-65.55095719 11.47409106 -33.88850842 1.69178201 0 0 Z " fill="#FFFFFF" transform="translate(1768.50390625,599.875)"/>
<path d="M0 0 C60.06 0 120.12 0 182 0 C182 349.47 182 698.94 182 1059 C121.94 1059 61.88 1059 0 1059 C0 709.53 0 360.06 0 0 Z " fill="#FFFFFF" transform="translate(294,606)"/>
<path d="M0 0 C1.01023224 0.00060425 2.02046448 0.0012085 3.06130981 0.00183105 C19.69948672 0.02873482 36.18760844 0.46590168 52.75 2.1875 C53.94915039 2.31108887 55.14830078 2.43467773 56.38378906 2.56201172 C107.79978845 8.08665349 157.48901408 21.0821283 204.75 42.1875 C205.6073877 42.56729004 206.46477539 42.94708008 207.34814453 43.33837891 C238.89029815 57.4125877 267.77484841 76.49378378 293.75 99.1875 C294.575 99.90035156 295.4 100.61320313 296.25 101.34765625 C307.66398963 111.3912162 318.45672538 122.14258541 327.75 134.1875 C328.53503906 135.1671875 329.32007813 136.146875 330.12890625 137.15625 C351.51488179 164.02148612 367.10879349 195.39645628 373.75 229.1875 C373.91226074 230.0129834 374.07452148 230.8384668 374.24169922 231.68896484 C383.98028917 283.99996659 370.63573124 338.16995254 340.94946289 381.8359375 C333.44038424 392.65345631 325.38969278 402.77208514 316.37890625 412.37109375 C313.8885021 415.03911959 311.47240656 417.759403 309.0625 420.5 C305.84341495 424.08437129 302.51031461 427.31955777 298.828125 430.421875 C296.51398319 432.38802556 294.2943052 434.44097972 292.0625 436.5 C286.22469921 441.7522463 280.06319948 446.5283184 273.75 451.1875 C273.11707031 451.65559082 272.48414063 452.12368164 271.83203125 452.60595703 C253.54046451 466.04163388 234.00777806 477.01134767 213.75 487.1875 C212.94240234 487.59597168 212.13480469 488.00444336 211.30273438 488.42529297 C168.57931202 509.88598428 120.9976787 522.63624117 73.75 529.1875 C75.4586121 530.8961121 77.80255398 530.76695132 80.13671875 531.1328125 C81.28712646 531.31875977 82.43753418 531.50470703 83.62280273 531.69628906 C84.88165283 531.89963867 86.14050293 532.10298828 87.4375 532.3125 C157.25470181 543.94561527 227.62472989 569.69349157 282.75 615.1875 C283.50796875 615.8055249 283.50796875 615.8055249 284.28125 616.43603516 C332.6372408 655.9475019 369.10139069 708.76920358 376.37109375 772.01171875 C381.37800319 828.98161591 362.60415431 882.17972442 326.75 926.1875 C326.3075293 926.73293457 325.86505859 927.27836914 325.40917969 927.84033203 C314.92354199 940.66473248 303.41745931 952.8861855 290.3671875 963.12890625 C287.55042107 965.34448224 284.84504877 967.66695004 282.125 970 C214.24333395 1026.4663923 122.30746701 1052.3907983 -49.25 1057.1875 C-50.2517627 1057.10209961 -51.25352539 1057.01669922 -52.28564453 1056.92871094 C-54.88003 1056.69895984 -57.47135538 1056.45108746 -60.0625 1056.1875 C-61.14772949 1056.08139404 -61.14772949 1056.08139404 -62.25488281 1055.97314453 C-67.00762827 1055.42987173 -67.00762827 1055.42987173 -69.25 1053.1875 C-68.38125244 1053.01210693 -67.51250488 1052.83671387 -66.61743164 1052.65600586 C2.15145155 1038.67579233 70.11414713 1012.86318244 119.75 961.1875 C122.15405757 958.76405487 124.56901691 956.36014427 127.0390625 954.00390625 C134.02736043 947.26101677 139.94638694 939.9542847 145.75 932.1875 C146.4001709 931.3205249 146.4001709 931.3205249 147.06347656 930.43603516 C153.56959595 921.70284003 159.36953673 912.65247171 164.75 903.1875 C165.1197998 902.54506348 165.48959961 901.90262695 165.87060547 901.24072266 C190.95560042 857.3066122 200.93319295 801.99620136 190.75 752.1875 C190.54600586 751.1871875 190.34201172 750.186875 190.13183594 749.15625 C187.1603827 735.03860317 183.24983725 721.522481 177.75 708.1875 C177.45399902 707.45547363 177.15799805 706.72344727 176.85302734 705.96923828 C169.44358208 687.80789135 159.66747295 670.75941763 147.75 655.1875 C147.31864746 654.61483398 146.88729492 654.04216797 146.44287109 653.45214844 C139.71782062 644.53943094 132.50524582 636.21605845 124.75 628.1875 C123.851604 627.25623291 123.851604 627.25623291 122.93505859 626.30615234 C115.26320717 618.39672101 107.49520573 610.91810336 98.75 604.1875 C97.46312437 603.1724038 96.17669933 602.15673621 94.890625 601.140625 C50.72406087 566.5117764 -0.68654313 545.93684375 -55.25 534.1875 C-56.83077425 533.8426545 -58.41150825 533.49762444 -59.9921875 533.15234375 C-63.07581797 532.4853613 -66.16074582 531.82781814 -69.25 531.1875 C-68.92 529.8675 -68.59 528.5475 -68.25 527.1875 C-67.58282959 527.06745605 -66.91565918 526.94741211 -66.22827148 526.82373047 C-32.60498644 520.71562964 -0.25796849 511.76457257 30.75 497.1875 C31.73597168 496.72472656 32.72194336 496.26195312 33.73779297 495.78515625 C60.73657192 482.98187987 85.33141029 466.9504441 107.75 447.1875 C108.58273437 446.465625 109.41546875 445.74375 110.2734375 445 C121.34637865 435.25294501 131.71183774 424.85765456 140.75 413.1875 C141.53632812 412.20652344 142.32265625 411.22554687 143.1328125 410.21484375 C181.70276636 361.76628994 199.36710323 301.21319328 192.97412109 239.70776367 C186.8794822 191.34701718 164.11816166 144.00717504 130.33984375 108.89453125 C128.25394869 106.7142518 126.30028498 104.50648415 124.375 102.1875 C115.58053669 92.07280249 105.04052448 83.50760049 94.39208984 75.43554688 C92.85271874 74.2655699 91.32624969 73.07867195 89.80078125 71.890625 C72.49026264 58.57120823 53.51357865 47.64556727 33.8515625 38.20117188 C32.45690869 37.52847176 31.06619681 36.8475337 29.6796875 36.15820312 C-1.19163845 20.86493556 -35.4890656 12.1659988 -69.25 6.1875 C-68.92 5.5275 -68.59 4.8675 -68.25 4.1875 C-65.74414062 3.70092773 -65.74414062 3.70092773 -62.40625 3.37109375 C-61.17777344 3.24669922 -59.94929687 3.12230469 -58.68359375 2.99414062 C-56.73646484 2.81141602 -56.73646484 2.81141602 -54.75 2.625 C-52.89568359 2.43647461 -52.89568359 2.43647461 -51.00390625 2.24414062 C-33.98945319 0.5672776 -17.09127817 -0.01898699 0 0 Z " fill="#FFFFFF" transform="translate(614.25,605.8125)"/>
</svg>
